<?xml version="1.0" encoding="utf-8"?>
<!-- Generator: Adobe Illustrator 25.2.0, SVG Export Plug-In . SVG Version: 6.00 Build 0)  -->
<svg version="1.1" id="Layer_1" xmlns="http://www.w3.org/2000/svg" xmlns:xlink="http://www.w3.org/1999/xlink" x="0px" y="0px"
	 viewBox="0 0 491.5 491.5" style="enable-background:new 0 0 491.5 491.5;" xml:space="preserve">
<g>
	<path d="M194.5,114.7h26.9c3.3,0,6.1,2.6,6.2,6c0.5,11.1,0.7,27.9-1.1,47.1l19.2,7.4l16.1-6.2c-3.7-19.8-3.3-37.1-2.3-48.6
		c0.3-3.2,3-5.7,6.2-5.7H297c15.1,0,27.4-10.2,27.4-22.8c0-9.3-6.7-17.6-17-21.1c-1.6-0.5-2.9-1.7-3.6-3.2c-0.7-1.5-0.8-3.2-0.2-4.8
		c0.8-2.1,1.1-4.3,1.1-6.5c0-12.6-12.3-22.8-27.4-22.8c-11.5,0-21.9,6.1-25.8,15.1c-1,2.3-3.2,3.8-5.7,3.8c-2.5,0-4.7-1.5-5.7-3.8
		c-3.9-9-14.3-15.1-25.8-15.1c-15.1,0-27.4,10.2-27.4,22.8c0,2.2,0.4,4.4,1.1,6.5c0.6,1.6,0.5,3.3-0.2,4.8c-0.7,1.5-2,2.7-3.6,3.2
		c-10.4,3.5-17,11.8-17,21.1C167.1,104.4,179.4,114.7,194.5,114.7z"/>
	<path d="M271.3,178.7l-23.3,9c-1.4,0.6-3,0.6-4.5,0l-25.6-9.9c-0.1,0-0.3-0.1-0.4-0.2l-1.8-0.7l-19.9,45.9
		c9.1,6.9,16.8,21.3,23,42.8c8.1,28.4,17.9,38.5,23.9,38.5c6,0,15.8-10.1,23.9-38.5c8.5-29.8,18.8-41.8,27.9-45.8l-18.6-43l-4.3,1.7
		C271.4,178.6,271.4,178.6,271.3,178.7z"/>
	<path d="M479.5,445.6h-44.2l-68-127.3l-29.7-5.7c-2-0.4-3.7-1.8-4.5-3.6l-33.7-77.6c-6,2.8-14,13.6-20.9,37.7
		c-11.2,39.3-25.7,47.5-35.9,47.5c-10.2,0-24.7-8.2-35.9-47.5c-4.6-16-10.4-28.2-16.2-34.2L158.4,309c-0.8,1.9-2.5,3.2-4.5,3.6
		l-29.7,5.7l-68,127.3H12c-3.4,0-6.2,2.8-6.2,6.2c0,3.4,2.8,6.2,6.2,6.2h467.5c3.4,0,6.2-2.8,6.2-6.2
		C485.8,448.4,483,445.6,479.5,445.6z M167.9,445.6H153c27.6-38.9,26.2-90.4,26.2-90.9c-0.1-3.4,2.6-6.3,6-6.4
		c3.5-0.1,6.3,2.6,6.5,6C191.7,356.5,193,404.7,167.9,445.6z M252,445.6h-12.5v-91.2c0-3.4,2.8-6.2,6.2-6.2s6.2,2.8,6.2,6.2V445.6z
		 M323.6,445.6c-25.1-40.9-23.8-89.2-23.7-91.4c0.1-3.4,3-6.1,6.5-6c3.4,0.1,6.1,3,6,6.4c0,0.8-1.3,52.3,26.2,90.9H323.6z"/>
	<path d="M163.5,166.3c3.1,0.8,7.8-3,9.5-9.4c0.9-3.3,0.8-6.7-0.2-9.3c-0.4-1.1-1.5-3.1-3.3-3.6c-0.3-0.1-0.6-0.1-0.9-0.1
		c-1.5,0-3,1-3.8,1.6c-2.2,1.8-3.9,4.7-4.8,7.9c-0.9,3.3-0.8,6.7,0.2,9.3C160.6,163.8,161.6,165.8,163.5,166.3z"/>
	<path d="M322,143.9c-0.9,0.2-1.6,0.9-2.2,1.6c-0.5,0.7-0.9,1.5-1.1,2.1c-1,2.6-1.1,6-0.2,9.3c0.9,3.3,2.6,6.2,4.8,7.9
		c1,0.8,2.8,2,4.7,1.5c1.9-0.5,2.9-2.5,3.3-3.6c1-2.6,1.1-6,0.2-9.3c-0.9-3.3-2.6-6.2-4.8-7.9c-0.8-0.6-2.3-1.6-3.8-1.6
		C322.6,143.8,322.3,143.8,322,143.9z"/>
</g>
</svg>
